<svg width="482" height="244" viewBox="0 0 482 244" fill="none" xmlns="http://www.w3.org/2000/svg"> <path d="M164 127.484C164 207.031 260.351 207.031 260.351 127.484C260.351 47.937 164 47.937 164 127.484Z" fill="#BCE0E8"/> <path d="M394 128.908C394 208.455 490.351 208.455 490.351 128.908C490.351 49.361 394 49.361 394 128.908Z" fill="#D7F4F4"/> <path d="M239 109.858C239 151.013 256.587 172.259 275.404 172.259C294.221 172.259 311.808 151.013 311.808 109.858C311.808 68.704 294.221 47.458 275.404 47.458C256.587 47.458 239 68.704 239 109.858Z" fill="#D7F4F4"/> <path d="M306 176.364C306 188.89 319.56 198 .416 335.5 198.416C351.44 198.416 365 188.89 365 176.364C365 163.838 351.44 154.312 335.5 154.312C319.56 154.312 306 163.838 306 176.364Z" fill="#BCE0E8"/> <path d="M50 128.908C50 208.455 146.351 208.455 146.351 128.908C146.351 49.361 50 49.361 50 128.908Z" fill="#D7F4F4"/> <path d="M0 127.484C0 207.031 96.351 207.031 96.351 127.484C96.351 47.937 0 47.937 0 127.484Z" fill="#BCE0E8"/> </svg>